<svg width="32" height="32" viewBox="0 0 32 32" xmlns="http://www.w3.org/2000/svg">
  <defs>
    <linearGradient id="bookGradient" x1="0%" y1="0%" x2="100%" y2="100%">
      <stop offset="0%" stop-color="#667eea"/>
      <stop offset="100%" stop-color="#764ba2"/>
    </linearGradient>
    <linearGradient id="pagesGradient" x1="0%" y1="0%" x2="100%" y2="100%">
      <stop offset="0%" stop-color="#f093fb"/>
      <stop offset="100%" stop-color="#f5576c"/>
    </linearGradient>
  </defs>
  
  <!-- Background Circle -->
  <circle cx="16" cy="16" r="16" fill="url(#bookGradient)"/>
  
  <!-- Book Cover -->
  <path d="M9 8 L9 24 C9 25 10 26 11 26 L23 26 C24 26 25 25 25 24 L25 8 C25 7 24 6 23 6 L11 6 C10 6 9 7 9 8 Z" fill="#ffffff" opacity="0.9"/>
  
  <!-- Book Spine -->
  <rect x="9" y="8" width="2" height="16" fill="#5a67d8"/>
  
  <!-- Pages -->
  <path d="M11 8 L11 24 C11 24.5 11.5 25 12 25 L22 25 C22.5 25 23 24.5 23 24 L23 8 C23 7.5 22.5 7 22 7 L12 7 C11.5 7 11 7.5 11 8 Z" fill="url(#pagesGradient)" opacity="0.8"/>
  
  <!-- Page Lines -->
  <line x1="13" y1="10" x2="21" y2="10" stroke="#ffffff" stroke-width="0.5"/>
  <line x1="13" y1="12" x2="21" y2="12" stroke="#ffffff" stroke-width="0.5"/>
  <line x1="13" y1="14" x2="21" y2="14" stroke="#ffffff" stroke-width="0.5"/>
  <line x1="13" y1="16" x2="21" y2="16" stroke="#ffffff" stroke-width="0.5"/>
  <line x1="13" y1="18" x2="21" y2="18" stroke="#ffffff" stroke-width="0.5"/>
  <line x1="13" y1="20" x2="21" y2="20" stroke="#ffffff" stroke-width="0.5"/>
  <line x1="13" y1="22" x2="21" y2="22" stroke="#ffffff" stroke-width="0.5"/>
  
  <!-- Bookmark Ribbon -->
  <path d="M19 8 L19 12 L21 10 Z" fill="#f56565"/>
  
  <!-- Sparkle Effect -->
  <circle cx="20" cy="12" r="0.8" fill="#ffffff"/>
  <circle cx="14" cy="20" r="0.6" fill="#ffffff"/>
</svg>